<mxfile host="app.diagrams.net" modified="2021-08-04T06:57:57.421Z" agent="5.0 (Windows NT 10.0; Win64; x64) AppleWebKit/537.36 (KHTML, like Gecko) Chrome/92.0.4515.107 Safari/537.36 Edg/92.0.902.62" etag="ksSScYsPuOtoXi8ozd_q" version="14.9.4" type="github">
  <diagram id="C5RBs43oDa-KdzZeNtuy" name="Page-1">
    <mxGraphModel dx="1673" dy="887" grid="1" gridSize="10" guides="1" tooltips="1" connect="1" arrows="1" fold="1" page="1" pageScale="1" pageWidth="827" pageHeight="1169" math="0" shadow="0">
      <root>
        <mxCell id="WIyWlLk6GJQsqaUBKTNV-0" />
        <mxCell id="WIyWlLk6GJQsqaUBKTNV-1" parent="WIyWlLk6GJQsqaUBKTNV-0" />
        <mxCell id="cvK-7X1HN3HpHyDsnjHT-27" value="" style="edgeStyle=orthogonalEdgeStyle;rounded=0;orthogonalLoop=1;jettySize=auto;html=1;" edge="1" parent="WIyWlLk6GJQsqaUBKTNV-1" source="cvK-7X1HN3HpHyDsnjHT-0" target="cvK-7X1HN3HpHyDsnjHT-25">
          <mxGeometry relative="1" as="geometry" />
        </mxCell>
        <mxCell id="cvK-7X1HN3HpHyDsnjHT-0" value="&lt;font style=&quot;font-size: 22px&quot;&gt;start&lt;/font&gt;" style="strokeWidth=2;html=1;shape=mxgraph.flowchart.terminator;whiteSpace=wrap;" vertex="1" parent="WIyWlLk6GJQsqaUBKTNV-1">
          <mxGeometry x="334" y="40" width="160" height="60" as="geometry" />
        </mxCell>
        <mxCell id="cvK-7X1HN3HpHyDsnjHT-2" value="&lt;font style=&quot;font-size: 22px&quot;&gt;end&lt;/font&gt;" style="strokeWidth=2;html=1;shape=mxgraph.flowchart.terminator;whiteSpace=wrap;" vertex="1" parent="WIyWlLk6GJQsqaUBKTNV-1">
          <mxGeometry x="334" y="800" width="160" height="60" as="geometry" />
        </mxCell>
        <mxCell id="cvK-7X1HN3HpHyDsnjHT-13" style="edgeStyle=orthogonalEdgeStyle;rounded=0;orthogonalLoop=1;jettySize=auto;html=1;entryX=0.5;entryY=0;entryDx=0;entryDy=0;" edge="1" parent="WIyWlLk6GJQsqaUBKTNV-1" source="cvK-7X1HN3HpHyDsnjHT-8" target="cvK-7X1HN3HpHyDsnjHT-12">
          <mxGeometry relative="1" as="geometry" />
        </mxCell>
        <mxCell id="cvK-7X1HN3HpHyDsnjHT-8" value="เลือกกล่องที่จะเปิด" style="rounded=0;whiteSpace=wrap;html=1;strokeWidth=2;" vertex="1" parent="WIyWlLk6GJQsqaUBKTNV-1">
          <mxGeometry x="344" y="210" width="140" height="40" as="geometry" />
        </mxCell>
        <mxCell id="cvK-7X1HN3HpHyDsnjHT-17" value="" style="edgeStyle=orthogonalEdgeStyle;rounded=0;orthogonalLoop=1;jettySize=auto;html=1;" edge="1" parent="WIyWlLk6GJQsqaUBKTNV-1" source="cvK-7X1HN3HpHyDsnjHT-12" target="cvK-7X1HN3HpHyDsnjHT-16">
          <mxGeometry relative="1" as="geometry" />
        </mxCell>
        <mxCell id="cvK-7X1HN3HpHyDsnjHT-40" value="" style="edgeStyle=orthogonalEdgeStyle;rounded=0;orthogonalLoop=1;jettySize=auto;html=1;entryX=0;entryY=0.5;entryDx=0;entryDy=0;" edge="1" parent="WIyWlLk6GJQsqaUBKTNV-1" source="cvK-7X1HN3HpHyDsnjHT-12" target="cvK-7X1HN3HpHyDsnjHT-35">
          <mxGeometry relative="1" as="geometry">
            <mxPoint x="360" y="670" as="targetPoint" />
            <Array as="points">
              <mxPoint x="260" y="315" />
              <mxPoint x="260" y="667" />
            </Array>
          </mxGeometry>
        </mxCell>
        <mxCell id="cvK-7X1HN3HpHyDsnjHT-12" value="มีกล่งที่ต้องการหรือไม่" style="rhombus;whiteSpace=wrap;html=1;strokeWidth=2;" vertex="1" parent="WIyWlLk6GJQsqaUBKTNV-1">
          <mxGeometry x="334" y="280" width="160" height="70" as="geometry" />
        </mxCell>
        <mxCell id="cvK-7X1HN3HpHyDsnjHT-19" value="" style="edgeStyle=orthogonalEdgeStyle;rounded=0;orthogonalLoop=1;jettySize=auto;html=1;entryX=0.5;entryY=0;entryDx=0;entryDy=0;" edge="1" parent="WIyWlLk6GJQsqaUBKTNV-1" source="cvK-7X1HN3HpHyDsnjHT-16" target="cvK-7X1HN3HpHyDsnjHT-22">
          <mxGeometry relative="1" as="geometry">
            <mxPoint x="414" y="380" as="targetPoint" />
          </mxGeometry>
        </mxCell>
        <mxCell id="cvK-7X1HN3HpHyDsnjHT-16" value="กดเปิดกล่อง" style="rounded=0;whiteSpace=wrap;html=1;strokeWidth=2;" vertex="1" parent="WIyWlLk6GJQsqaUBKTNV-1">
          <mxGeometry x="344" y="380" width="140" height="40" as="geometry" />
        </mxCell>
        <mxCell id="cvK-7X1HN3HpHyDsnjHT-28" value="" style="edgeStyle=orthogonalEdgeStyle;rounded=0;orthogonalLoop=1;jettySize=auto;html=1;" edge="1" parent="WIyWlLk6GJQsqaUBKTNV-1" source="cvK-7X1HN3HpHyDsnjHT-22" target="cvK-7X1HN3HpHyDsnjHT-24">
          <mxGeometry relative="1" as="geometry" />
        </mxCell>
        <mxCell id="cvK-7X1HN3HpHyDsnjHT-32" style="edgeStyle=orthogonalEdgeStyle;rounded=0;orthogonalLoop=1;jettySize=auto;html=1;" edge="1" parent="WIyWlLk6GJQsqaUBKTNV-1" source="cvK-7X1HN3HpHyDsnjHT-22" target="cvK-7X1HN3HpHyDsnjHT-29">
          <mxGeometry relative="1" as="geometry" />
        </mxCell>
        <mxCell id="cvK-7X1HN3HpHyDsnjHT-22" value="ได้สกินที่ต้องการมั้ย" style="rhombus;whiteSpace=wrap;html=1;strokeWidth=2;" vertex="1" parent="WIyWlLk6GJQsqaUBKTNV-1">
          <mxGeometry x="331" y="470" width="166" height="80" as="geometry" />
        </mxCell>
        <mxCell id="cvK-7X1HN3HpHyDsnjHT-37" value="" style="edgeStyle=orthogonalEdgeStyle;rounded=0;orthogonalLoop=1;jettySize=auto;html=1;" edge="1" parent="WIyWlLk6GJQsqaUBKTNV-1" source="cvK-7X1HN3HpHyDsnjHT-24" target="cvK-7X1HN3HpHyDsnjHT-35">
          <mxGeometry relative="1" as="geometry" />
        </mxCell>
        <mxCell id="cvK-7X1HN3HpHyDsnjHT-24" value="โอนสกินเข้าช่องเก็บของ" style="rounded=0;whiteSpace=wrap;html=1;strokeWidth=2;" vertex="1" parent="WIyWlLk6GJQsqaUBKTNV-1">
          <mxGeometry x="344" y="585" width="140" height="40" as="geometry" />
        </mxCell>
        <mxCell id="cvK-7X1HN3HpHyDsnjHT-26" value="" style="edgeStyle=orthogonalEdgeStyle;rounded=0;orthogonalLoop=1;jettySize=auto;html=1;" edge="1" parent="WIyWlLk6GJQsqaUBKTNV-1" source="cvK-7X1HN3HpHyDsnjHT-25" target="cvK-7X1HN3HpHyDsnjHT-8">
          <mxGeometry relative="1" as="geometry" />
        </mxCell>
        <mxCell id="cvK-7X1HN3HpHyDsnjHT-25" value="เข้าเว็บสุ่มสกิน" style="rounded=0;whiteSpace=wrap;html=1;strokeWidth=2;" vertex="1" parent="WIyWlLk6GJQsqaUBKTNV-1">
          <mxGeometry x="344" y="130" width="140" height="40" as="geometry" />
        </mxCell>
        <mxCell id="cvK-7X1HN3HpHyDsnjHT-30" value="" style="edgeStyle=orthogonalEdgeStyle;rounded=0;orthogonalLoop=1;jettySize=auto;html=1;" edge="1" parent="WIyWlLk6GJQsqaUBKTNV-1" source="cvK-7X1HN3HpHyDsnjHT-29" target="cvK-7X1HN3HpHyDsnjHT-16">
          <mxGeometry relative="1" as="geometry" />
        </mxCell>
        <mxCell id="cvK-7X1HN3HpHyDsnjHT-41" style="edgeStyle=orthogonalEdgeStyle;rounded=0;orthogonalLoop=1;jettySize=auto;html=1;entryX=1;entryY=0.5;entryDx=0;entryDy=0;" edge="1" parent="WIyWlLk6GJQsqaUBKTNV-1" source="cvK-7X1HN3HpHyDsnjHT-29" target="cvK-7X1HN3HpHyDsnjHT-35">
          <mxGeometry relative="1" as="geometry">
            <mxPoint x="660" y="660" as="targetPoint" />
            <Array as="points">
              <mxPoint x="730" y="400" />
              <mxPoint x="730" y="667" />
            </Array>
          </mxGeometry>
        </mxCell>
        <mxCell id="cvK-7X1HN3HpHyDsnjHT-29" value="เปิดต่อมั้ย" style="rhombus;whiteSpace=wrap;html=1;strokeWidth=2;" vertex="1" parent="WIyWlLk6GJQsqaUBKTNV-1">
          <mxGeometry x="540" y="360" width="110" height="80" as="geometry" />
        </mxCell>
        <mxCell id="cvK-7X1HN3HpHyDsnjHT-42" value="" style="edgeStyle=orthogonalEdgeStyle;rounded=0;orthogonalLoop=1;jettySize=auto;html=1;" edge="1" parent="WIyWlLk6GJQsqaUBKTNV-1" source="cvK-7X1HN3HpHyDsnjHT-33" target="cvK-7X1HN3HpHyDsnjHT-2">
          <mxGeometry relative="1" as="geometry" />
        </mxCell>
        <mxCell id="cvK-7X1HN3HpHyDsnjHT-33" value="ปิดเว็บสุ่ม" style="rounded=0;whiteSpace=wrap;html=1;strokeWidth=2;" vertex="1" parent="WIyWlLk6GJQsqaUBKTNV-1">
          <mxGeometry x="344" y="720" width="140" height="40" as="geometry" />
        </mxCell>
        <mxCell id="cvK-7X1HN3HpHyDsnjHT-36" value="" style="edgeStyle=orthogonalEdgeStyle;rounded=0;orthogonalLoop=1;jettySize=auto;html=1;" edge="1" parent="WIyWlLk6GJQsqaUBKTNV-1" source="cvK-7X1HN3HpHyDsnjHT-35" target="cvK-7X1HN3HpHyDsnjHT-33">
          <mxGeometry relative="1" as="geometry" />
        </mxCell>
        <mxCell id="cvK-7X1HN3HpHyDsnjHT-35" value="" style="ellipse;whiteSpace=wrap;html=1;aspect=fixed;strokeWidth=2;" vertex="1" parent="WIyWlLk6GJQsqaUBKTNV-1">
          <mxGeometry x="397" y="650" width="34" height="34" as="geometry" />
        </mxCell>
        <mxCell id="cvK-7X1HN3HpHyDsnjHT-43" value="&lt;font style=&quot;font-size: 17px&quot;&gt;True&lt;br&gt;(มี)&lt;br&gt;&lt;/font&gt;" style="text;html=1;strokeColor=none;fillColor=none;align=center;verticalAlign=middle;whiteSpace=wrap;rounded=0;" vertex="1" parent="WIyWlLk6GJQsqaUBKTNV-1">
          <mxGeometry x="344" y="350" width="40" height="20" as="geometry" />
        </mxCell>
        <mxCell id="cvK-7X1HN3HpHyDsnjHT-45" value="&lt;font style=&quot;font-size: 17px&quot;&gt;True&lt;br&gt;(ได้)&lt;br&gt;&lt;/font&gt;" style="text;html=1;strokeColor=none;fillColor=none;align=center;verticalAlign=middle;whiteSpace=wrap;rounded=0;" vertex="1" parent="WIyWlLk6GJQsqaUBKTNV-1">
          <mxGeometry x="454" y="550" width="40" height="20" as="geometry" />
        </mxCell>
        <mxCell id="cvK-7X1HN3HpHyDsnjHT-47" value="&lt;font style=&quot;font-size: 17px&quot;&gt;True&lt;br&gt;(เปิดต่อ)&lt;br&gt;&lt;/font&gt;" style="text;html=1;strokeColor=none;fillColor=none;align=center;verticalAlign=middle;whiteSpace=wrap;rounded=0;" vertex="1" parent="WIyWlLk6GJQsqaUBKTNV-1">
          <mxGeometry x="484" y="360" width="70" height="20" as="geometry" />
        </mxCell>
        <mxCell id="cvK-7X1HN3HpHyDsnjHT-48" value="&lt;font style=&quot;font-size: 17px&quot;&gt;False&lt;br&gt;(ไม่เปิดต่อ)&lt;br&gt;&lt;/font&gt;" style="text;html=1;strokeColor=none;fillColor=none;align=center;verticalAlign=middle;whiteSpace=wrap;rounded=0;" vertex="1" parent="WIyWlLk6GJQsqaUBKTNV-1">
          <mxGeometry x="650" y="420" width="80" height="20" as="geometry" />
        </mxCell>
        <mxCell id="cvK-7X1HN3HpHyDsnjHT-50" value="&lt;font style=&quot;font-size: 17px&quot;&gt;False&lt;br&gt;(ไม่มี)&lt;br&gt;&lt;/font&gt;" style="text;html=1;strokeColor=none;fillColor=none;align=center;verticalAlign=middle;whiteSpace=wrap;rounded=0;" vertex="1" parent="WIyWlLk6GJQsqaUBKTNV-1">
          <mxGeometry x="180" y="460" width="80" height="20" as="geometry" />
        </mxCell>
        <mxCell id="cvK-7X1HN3HpHyDsnjHT-51" value="&lt;font style=&quot;font-size: 17px&quot;&gt;False&lt;br&gt;(ไม่ได้)&lt;br&gt;&lt;/font&gt;" style="text;html=1;strokeColor=none;fillColor=none;align=center;verticalAlign=middle;whiteSpace=wrap;rounded=0;" vertex="1" parent="WIyWlLk6GJQsqaUBKTNV-1">
          <mxGeometry x="497" y="480" width="80" height="20" as="geometry" />
        </mxCell>
      </root>
    </mxGraphModel>
  </diagram>
</mxfile>
